Coordinates
nRows=6
nColumns=38

# SIMM Motion File Header:
name Coordinates
datacolumns 38
datarows 6
otherdata 1
range 1.82700000000000020000 1.83200000000000010000

Units are S.I. units (second, meters, Newtons, ...)
Angles are in degrees.

endheader
time	pelvis_tilt	pelvis_list	pelvis_rotation	pelvis_tx	pelvis_ty	pelvis_tz	hip_flexion_r	hip_adduction_r	hip_rotation_r	knee_angle_r	ankle_angle_r	subtalar_angle_r	mtp_angle_r	hip_flexion_l	hip_adduction_l	hip_rotation_l	knee_angle_l	ankle_angle_l	subtalar_angle_l	mtp_angle_l	lumbar_extension	lumbar_bending	lumbar_rotation	arm_flex_r	arm_add_r	arm_rot_r	elbow_flex_r	pro_sup_r	wrist_flex_r	wrist_dev_r	arm_flex_l	arm_add_l	arm_rot_l	elbow_flex_l	pro_sup_l	wrist_flex_l	wrist_dev_l
      1.82700000000000020000	     -5.08086308826253230000	      2.12746690341157140000	      0.22701554818871411000	      1.10304768004654520000	      0.96429529155633775000	     -0.33489136933147678000	     50.76078857751971200000	      1.40542667262430280000	      0.26462306134180380000	   -107.18537454538739000000	     -1.79408093493459940000	     -0.00000000000021771675	      0.00000000000027318921	      1.77320398204032830000	      7.53603648634711390000	      3.69276455103879850000	    -34.39585055505992300000	     12.68534053716330600000	     -0.00000000000001036997	      0.00000000000015147412	     -6.77000801876244920000	     -4.89694074543155990000	     -9.35759358448760460000	    -37.87726376881840900000	    -10.64579737989807200000	    -15.24537375415283000000	     60.68020328079583700000	     65.46687501229773400000	      0.00000000000005090178	      0.00000000000006776758	    -17.42975231705673500000	    -17.42585874526568500000	      0.15354664480414051000	    127.64137257797528000000	     87.80906160376373700000	      0.00000000000000690727	     -0.00000000000001149005
      1.82800000000000010000	     -5.08795831870295690000	      1.97162666764286040000	      0.14358484000874416000	      1.10347041514386280000	      0.96508750059851645000	     -0.33486618183643346000	     50.86764952425812700000	      1.58065941105225230000	      0.21403618168001376000	   -106.62377405816605000000	     -1.79024807123974080000	     -0.00000000000021843837	      0.00000000000027395409	      1.34639878027648190000	      7.36868179148205820000	      3.72888378909459520000	    -34.02646473932032500000	     12.20532709575726900000	     -0.00000000000001046703	      0.00000000000015253465	     -6.69349873971133840000	     -4.69642193494309450000	     -9.40476580736833690000	    -38.02634385952452300000	    -10.68035554775654300000	    -15.38385605265964200000	     60.83394693397327300000	     65.31691723475876200000	      0.00000000000005101664	      0.00000000000006793184	    -17.37912504267926300000	    -17.37001377777823000000	      0.18690513973549067000	    127.95087374745270000000	     87.88987962618108400000	      0.00000000000000692376	     -0.00000000000001154946
      1.82900000000000020000	     -5.09577848174406790000	      1.81432836932928130000	      0.05809028210843296400	      1.10390023455418730000	      0.96588621814820297000	     -0.33483685529934260000	     50.96930333141965300000	      1.75817660318324220000	      0.16288418728222037000	   -106.05543765394448000000	     -1.78808703201070030000	     -0.00000000000021916161	      0.00000000000027471855	      0.92108472995312252000	      7.19934994863555660000	      3.75897384107031400000	    -33.65520581555524200000	     11.71184455762429300000	     -0.00000000000001056670	      0.00000000000015356985	     -6.61574779452992700000	     -4.49427639299274250000	     -9.44876084165939110000	    -38.17588906691990800000	    -10.71618091589609600000	    -15.51967084519522000000	     60.98724483641434800000	     65.17215837016380000000	      0.00000000000005113107	      0.00000000000006809644	    -17.33160983848318500000	    -17.31446434660930900000	      0.22105823545339909000	    128.25912436314584000000	     87.97617476220334300000	      0.00000000000000694029	     -0.00000000000001161895
      1.83000000000000010000	     -5.10442519917491920000	      1.65561030090560710000	     -0.02942931257403396500	      1.10433684792841900000	      0.96669096184783021000	     -0.33480341624280130000	     51.06589596295506800000	      1.93794425421314220000	      0.11124037488077294000	   -105.48042849949800000000	     -1.78764662972374190000	     -0.00000000000021988525	      0.00000000000027548249	      0.49750797492986093000	      7.02813201549932560000	      3.78291525335967330000	    -33.28232963116232700000	     11.20511614800847500000	     -0.00000000000001065852	      0.00000000000015460333	     -6.53671098306732110000	     -4.29053519242966530000	     -9.48959654197634710000	    -38.32591393528709700000	    -10.75323781303877300000	    -15.65284570934774100000	     61.14002596765517000000	     65.03278035553356100000	      0.00000000000005124371	      0.00000000000006826070	    -17.28715109532313200000	    -17.25920163869273300000	      0.25611799656912937000	    128.56607672855054000000	     88.06766391469066900000	      0.00000000000000695634	     -0.00000000000001168696
      1.83100000000000020000	     -5.11399653679830820000	      1.49551707043498290000	     -0.11893267299137932000	      1.10477995936647330000	      0.96750125353948335000	     -0.33476589940460599000	     51.15757042680249400000	      2.11992255939522110000	      0.05918305859345741200	   -104.89880870699417000000	     -1.78897690287214490000	     -0.00000000000022061222	      0.00000000000027624543	      0.07590986693978478400	      6.85512828897837420000	      3.80060335230641840000	    -32.90809307733533000000	     10.68538920234993300000	     -0.00000000000001074876	      0.00000000000015561402	     -6.45634847461626290000	     -4.08523511686139780000	     -9.52729629111655460000	    -38.47643049848329600000	    -10.79148810341320400000	    -15.78341340803968900000	     61.29222575596001100000	     64.89894689791853500000	      0.00000000000005135665	      0.00000000000006842480	    -17.24569256751269500000	    -17.20421682307676600000	      0.29219473109299049000	    128.87168672665334000000	     88.16404547300442100000	      0.00000000000000697322	     -0.00000000000001176246
      1.83200000000000010000	     -5.12458749953954310000	      1.33409993528505890000	     -0.21037607305503253000	      1.10522926743760920000	      0.96831661897880794000	     -0.33472434751758162000	     51.24446730709805600000	      2.30406562714395720000	      0.00679567050938541940	   -104.31063955181861000000	     -1.79212882478765990000	     -0.00000000000022134095	      0.00000000000027701006	     -0.34347253527552224000	      6.68044841027089300000	      3.81194888623002730000	    -32.53275426794947800000	     10.15293965640620400000	     -0.00000000000001085064	      0.00000000000015662216	     -6.37462412926029030000	     -3.87841918182037930000	     -9.56188905075480020000	    -38.62744797509552800000	    -10.83089124851709100000	    -15.91141122957795400000	     61.44378553992383700000	     64.77080330367309100000	      0.00000000000005147003	      0.00000000000006858877	    -17.20717761460726400000	    -17.14950131999785700000	      0.32939624110299726000	    129.17591355363339000000	     88.26500213866185600000	      0.00000000000000698994	     -0.00000000000001182405
